# xmcd
#
# Track frame offsets: 
#        150
#        10769
#        22246
#        33443
#        47616
#        59870
#        71678
#        81338
#        95357
#        108020
#        119900
#        132780
#        147233
#        161122
#        173461
#        186068
#
# Disc length: 2638 seconds
#
# Revision: 0
# Processed by: cddbd v1.5.2PL0 Copyright (c) Steve Scherf et al.
# Submitted via: ExactAudioCopy v0.99pb1
#
DISCID=df0a4c10
DTITLE=Benny Latimore - The Early Years
DYEAR=2005
DGENRE=Soul
TTITLE0=There She Is
TTITLE1=Ain't Gonna Cry No More
TTITLE2=Girl I Got News For You
TTITLE3=The Power and the Glory
TTITLE4=It Was So Nice While It Lasted
TTITLE5=Move and Groove Together
TTITLE6=Love Don't Love Me
TTITLE7=Life's Little Ups and Downs
TTITLE8=It's Just a Matter of Time
TTITLE9=I'm Just an Ordinary Man
TTITLE10=I'll Be Good to You
TTITLE11=I Pity the Fool
TTITLE12=Have a Little Faith
TTITLE13=I'm a Believer
TTITLE14=Rain From The Sky
TTITLE15=I Can't Go On
EXTD=
EXTT0=
EXTT1=
EXTT2=
EXTT3=
EXTT4=
EXTT5=
EXTT6=
EXTT7=
EXTT8=
EXTT9=
EXTT10=
EXTT11=
EXTT12=
EXTT13=
EXTT14=
EXTT15=
PLAYORDER=
